<svg width="13" height="13" viewBox="0 0 13 13" fill="none" xmlns="http://www.w3.org/2000/svg">
<path d="M6.226 0.500003C6.226 0.367394 6.17332 0.240216 6.07955 0.146447C5.98579 0.0526787 5.85861 0 5.726 0C5.59339 0 5.46622 0.0526787 5.37245 0.146447C5.27868 0.240216 5.226 0.367394 5.226 0.500003V1.81868C5.226 1.95129 5.27868 2.07847 5.37245 2.17223C5.46622 2.266 5.59339 2.31868 5.726 2.31868C5.85861 2.31868 5.98579 2.266 6.07955 2.17223C6.17332 2.07847 6.226 1.95129 6.226 1.81868V0.500003ZM2.48867 1.79668C2.39486 1.70499 2.26878 1.65383 2.13761 1.65424C2.00644 1.65465 1.88068 1.70659 1.78745 1.79886C1.69422 1.89113 1.64098 2.01634 1.63921 2.1475C1.63744 2.27866 1.68729 2.40527 1.778 2.50002L2.758 3.48869C2.80305 3.53963 2.85801 3.58085 2.91954 3.60982C2.98106 3.6388 3.04785 3.65492 3.11581 3.65719C3.18378 3.65947 3.2515 3.64786 3.31482 3.62307C3.37814 3.59828 3.43575 3.56084 3.48411 3.51302C3.53246 3.46521 3.57056 3.40804 3.59606 3.345C3.62157 3.28195 3.63395 3.21437 3.63244 3.14639C3.63093 3.0784 3.61557 3.01143 3.5873 2.94959C3.55902 2.88774 3.51843 2.83231 3.468 2.78668L2.48867 1.79668ZM9.674 2.50002C9.76192 2.40482 9.80945 2.27922 9.80657 2.14967C9.8037 2.02012 9.75064 1.89674 9.65858 1.80555C9.56652 1.71435 9.44265 1.66246 9.31308 1.6608C9.18351 1.65915 9.05836 1.70786 8.964 1.79668L7.984 2.78602C7.93512 2.83203 7.896 2.88742 7.86898 2.94887C7.84196 3.01033 7.8276 3.07659 7.82674 3.14372C7.82588 3.21085 7.83855 3.27746 7.86399 3.33959C7.88943 3.40171 7.92712 3.45808 7.97482 3.50533C8.02251 3.55257 8.07923 3.58973 8.14159 3.61458C8.20395 3.63944 8.27068 3.65148 8.3378 3.64999C8.40491 3.6485 8.47104 3.6335 8.53224 3.60591C8.59344 3.57831 8.64845 3.53867 8.694 3.48936L9.674 2.50002ZM6.36667 5.2307C5.68333 4.96137 5.03733 5.64204 5.29333 6.30404L7.68067 12.4707C7.954 13.1761 8.948 13.1768 9.22133 12.4707L10.1373 10.1087L12.476 9.18539C13.1747 8.90939 13.1747 7.91672 12.476 7.64072L6.36667 5.2307ZM1.80667 5.27537H0.5C0.367392 5.27537 0.240215 5.32805 0.146447 5.42181C0.0526784 5.51558 0 5.64276 0 5.77537C0 5.90798 0.0526784 6.03516 0.146447 6.12893C0.240215 6.22269 0.367392 6.27537 0.5 6.27537H1.80667C1.93928 6.27537 2.06645 6.22269 2.16022 6.12893C2.25399 6.03516 2.30667 5.90798 2.30667 5.77537C2.30667 5.64276 2.25399 5.51558 2.16022 5.42181C2.06645 5.32805 1.93928 5.27537 1.80667 5.27537ZM3.468 8.76472C3.55876 8.67005 3.60869 8.54351 3.60703 8.41237C3.60537 8.28123 3.55225 8.15599 3.45912 8.06365C3.36599 7.97131 3.24031 7.91925 3.10916 7.91871C2.97801 7.91816 2.8519 7.96916 2.758 8.06072L1.778 9.05006C1.73177 9.09672 1.69519 9.15203 1.67034 9.21283C1.64549 9.27364 1.63286 9.33873 1.63317 9.40442C1.63348 9.4701 1.64673 9.53508 1.67215 9.59564C1.69757 9.65621 1.73467 9.71117 1.78133 9.7574C1.828 9.80362 1.88331 9.8402 1.94411 9.86505C2.00491 9.8899 2.07001 9.90253 2.13569 9.90222C2.20137 9.90192 2.26635 9.88867 2.32691 9.86325C2.38748 9.83783 2.44244 9.80073 2.48867 9.75406L3.468 8.76472Z" fill="#737373"/>
</svg>
