<svg width="72" height="72" viewBox="0 0 72 72" fill="none" xmlns="http://www.w3.org/2000/svg">
<path opacity="0.486275" d="M33.1172 4.5L34.5938 4.57031L33.1172 4.64062V4.5Z" fill="#FF0000" stroke="#FF0000"/>
<path opacity="0.486275" d="M37.4766 4.5L38.9531 4.57031L37.4766 4.64062V4.5Z" fill="#FF0000" stroke="#FF0000"/>
<path opacity="0.486275" d="M31.8516 4.64062L32.625 4.71094L31.8516 4.78125V4.64062Z" fill="#FF0000" stroke="#FF0000"/>
<path opacity="0.486275" d="M39.4453 4.64062L40.2188 4.71094L39.4453 4.78125V4.64062Z" fill="#FF0000" stroke="#FF0000"/>
<path opacity="0.486275" d="M30.8672 4.78125L31.5 4.85156L30.8672 4.92188V4.78125Z" fill="#FF0000" stroke="#FF0000"/>
<path opacity="0.486275" d="M40.5703 4.78125L41.2031 4.85156L40.5703 4.92188V4.78125Z" fill="#FF0000" stroke="#FF0000"/>
<path opacity="0.486275" d="M30.1641 4.92188L30.6562 4.99219L30.1641 5.0625V4.92188Z" fill="#FF0000" stroke="#FF0000"/>
<path opacity="0.486275" d="M41.4141 4.92188L42.6094 5.13281L42.1172 5.20312L41.4141 5.0625V4.92188Z" fill="#FF0000" stroke="#FF0000"/>
<path opacity="0.486275" d="M29.4609 5.0625L29.8125 5.13281L29.4609 5.20312V5.0625Z" fill="#FF0000" stroke="#FF0000"/>
<path opacity="0.486275" d="M28.7578 5.20312L29.25 5.27344L28.1953 5.48438V5.34375L28.7578 5.20312Z" fill="#FF0000" stroke="#FF0000"/>
<path opacity="0.486275" d="M42.8203 5.20312L43.3125 5.27344L42.8203 5.34375V5.20312Z" fill="#FF0000" stroke="#FF0000"/>
<path opacity="0.486275" d="M43.5234 5.34375L43.875 5.41406L43.5234 5.48438V5.34375Z" fill="#FF0000" stroke="#FF0000"/>
<path opacity="0.486275" d="M27.6328 5.48438L27.9844 5.55469L27.2109 5.76562V5.625L27.6328 5.48438Z" fill="#FF0000" stroke="#FF0000"/>
<path opacity="0.486275" d="M44.0859 5.48438L44.8594 5.69531L44.5078 5.76562L44.0859 5.625V5.48438Z" fill="#FF0000" stroke="#FF0000"/>
<path opacity="0.486275" d="M26.6484 5.76562L27 5.83594L25.1016 6.46875V6.32812L26.6484 5.76562Z" fill="#FF0000" stroke="#FF0000"/>
<path opacity="0.486275" d="M45.0703 5.76562L46.9688 6.39844L46.7578 6.46875L45.0703 5.90625V5.76562Z" fill="#FF0000" stroke="#FF0000"/>
<path opacity="0.486275" d="M24.6797 6.46875L24.8906 6.53906L24.3984 6.75V6.60938L24.6797 6.46875Z" fill="#FF0000" stroke="#FF0000"/>
<path opacity="0.486275" d="M47.1797 6.46875L48.375 6.96094L48.1641 7.03125L47.1797 6.60938V6.46875Z" fill="#FF0000" stroke="#FF0000"/>
<path opacity="0.486275" d="M23.9766 6.75L24.1875 6.82031L23.6953 7.03125V6.89062L23.9766 6.75Z" fill="#FF0000" stroke="#FF0000"/>
<path opacity="0.486275" d="M23.2734 7.03125L23.4844 7.10156C19.1812 8.98594 15.5719 11.5641 12.6562 14.8359C10.3781 17.2922 8.52656 20.175 7.10156 23.4844L7.03125 23.2734C9.00937 18.8766 11.7047 15.1969 15.1172 12.2344C17.4797 10.1437 20.1984 8.40938 23.2734 7.03125Z" fill="#FF0000" stroke="#FF0000"/>
<path opacity="0.486275" d="M48.5859 7.03125C53.0109 8.93438 56.6906 11.5828 59.625 14.9766C61.8281 17.3672 63.6094 20.1797 64.9688 23.4141H64.8281C62.9813 19.1203 60.4266 15.5344 57.1641 12.6562L52.9453 9.42188L48.5859 7.17188V7.03125Z" fill="#FF0000" stroke="#FF0000"/>
<path opacity="0.486275" d="M35.2266 19.125L35.8594 19.1953L35.2266 19.2656V19.125Z" fill="#FF0000" stroke="#FF0000"/>
<path opacity="0.486275" d="M36.2109 19.125L36.8438 19.1953L36.2109 19.2656V19.125Z" fill="#FF0000" stroke="#FF0000"/>
<path opacity="0.486275" d="M34.8047 19.2656L35.0156 19.3359C34.2 19.5984 33.5906 20.0672 33.1875 20.7422C32.8594 21.1641 32.6953 21.75 32.6953 22.5L32.625 21.7266C32.8594 20.9297 33.2578 20.2969 33.8203 19.8281L34.8047 19.2656Z" fill="#FF0000" stroke="#FF0000"/>
<path opacity="0.486275" d="M37.0547 19.2656C37.7484 19.4625 38.2875 19.8141 38.6719 20.3203L39.375 21.7266V39.4453H39.2344V21.7266C38.9813 20.8078 38.4891 20.1281 37.7578 19.6875L37.0547 19.4062V19.2656Z" fill="#FF0000" stroke="#FF0000"/>
<path opacity="0.486275" d="M65.0391 23.625L65.5312 24.8203H65.3906L65.0391 23.625Z" fill="#FF0000" stroke="#FF0000"/>
<path opacity="0.486275" d="M65.6016 25.0312L66.2344 26.9297H66.0938L65.6016 25.0312Z" fill="#FF0000" stroke="#FF0000"/>
<path opacity="0.486275" d="M66.3047 27.1406L66.5156 27.9141H66.375L66.3047 27.1406Z" fill="#FF0000" stroke="#FF0000"/>
<path opacity="0.486275" d="M66.5859 28.125L66.6562 28.4766H66.5156L66.5859 28.125Z" fill="#FF0000" stroke="#FF0000"/>
<path opacity="0.486275" d="M66.7266 28.6875L66.7969 29.1797H66.6562L66.7266 28.6875Z" fill="#FF0000" stroke="#FF0000"/>
<path opacity="0.486275" d="M66.8672 29.3906L66.9375 29.8828H66.7969L66.8672 29.3906Z" fill="#FF0000" stroke="#FF0000"/>
<path opacity="0.486275" d="M67.0078 30.0938L67.0781 30.5859H66.9375L67.0078 30.0938Z" fill="#FF0000" stroke="#FF0000"/>
<path opacity="0.486275" d="M67.1484 30.7969L67.2188 31.4297H67.0781L67.1484 30.7969Z" fill="#FF0000" stroke="#FF0000"/>
<path opacity="0.486275" d="M67.2891 31.7812L67.3594 32.5547H67.2188L67.2891 31.7812Z" fill="#FF0000" stroke="#FF0000"/>
<path opacity="0.486275" d="M67.4297 33.0469L67.5 34.5234H67.3594L67.4297 33.0469Z" fill="#FF0000" stroke="#FF0000"/>
<path opacity="0.486275" d="M67.4297 37.4062L67.5 38.8828H67.3594L67.4297 37.4062Z" fill="#FF0000" stroke="#FF0000"/>
<path opacity="0.486275" d="M32.6953 38.6719L32.7656 39.4453H32.625L32.6953 38.6719Z" fill="#FF0000" stroke="#FF0000"/>
<path opacity="0.486275" d="M67.2891 39.375L67.3594 40.1484H67.2188L67.2891 39.375Z" fill="#FF0000" stroke="#FF0000"/>
<path opacity="0.486275" d="M32.8359 39.6562L33.9609 41.3438C34.3641 41.7 34.9031 41.9109 35.5781 41.9766L35.0859 42.0469C34.2703 41.7844 33.6375 41.3391 33.1875 40.7109L32.8359 39.6562Z" fill="#FF0000" stroke="#FF0000"/>
<path opacity="0.486275" d="M39.1641 39.6562L39.2344 39.8672C38.9906 40.5609 38.5922 41.1 38.0391 41.4844C37.6828 41.8313 37.1672 42.0187 36.4922 42.0469V41.9062C37.4391 41.8219 38.1187 41.4703 38.5312 40.8516L39.1641 39.6562Z" fill="#FF0000" stroke="#FF0000"/>
<path opacity="0.486275" d="M67.1484 40.5L67.2188 41.1328H67.0781L67.1484 40.5Z" fill="#FF0000" stroke="#FF0000"/>
<path opacity="0.486275" d="M67.0078 41.3438L67.0781 41.8359H66.9375L67.0078 41.3438Z" fill="#FF0000" stroke="#FF0000"/>
<path opacity="0.486275" d="M66.8672 42.0469L66.9375 42.5391H66.7969L66.8672 42.0469Z" fill="#FF0000" stroke="#FF0000"/>
<path opacity="0.486275" d="M66.7266 42.75L66.7969 43.2422L66.5859 43.875L66.5156 43.3828L66.7266 42.75Z" fill="#FF0000" stroke="#FF0000"/>
<path opacity="0.486275" d="M66.4453 44.0156L66.5156 44.3672L66.3047 44.8594L66.2344 44.5078L66.4453 44.0156Z" fill="#FF0000" stroke="#FF0000"/>
<path opacity="0.486275" d="M66.1641 45L66.2344 45.3516L65.6016 46.9688L65.5312 46.7578L66.1641 45Z" fill="#FF0000" stroke="#FF0000"/>
<path opacity="0.486275" d="M35.2266 45.7031L36.8438 45.7734L35.2266 45.8438V45.7031Z" fill="#FF0000" stroke="#FF0000"/>
<path opacity="0.486275" d="M34.6641 45.8438L35.0156 45.9141C34.1625 46.1391 33.5062 46.5609 33.0469 47.1797L32.4141 48.375L32.3438 48.1641C32.6156 47.4047 33.0609 46.8188 33.6797 46.4062L34.6641 45.8438Z" fill="#FF0000" stroke="#FF0000"/>
<path opacity="0.486275" d="M37.4766 45.9844C38.1703 46.2281 38.7094 46.6266 39.0938 47.1797L39.6562 48.4453H39.5156C39.3563 47.6672 39.0047 47.0812 38.4609 46.6875L37.4766 46.125V45.9844Z" fill="#FF0000" stroke="#FF0000"/>
<path opacity="0.486275" d="M65.4609 47.1094L65.5312 47.3203L65.3203 47.6719L65.25 47.4609L65.4609 47.1094Z" fill="#FF0000" stroke="#FF0000"/>
<path opacity="0.486275" d="M65.1797 47.8125L65.25 48.0234L65.0391 48.375L64.9688 48.1641L65.1797 47.8125Z" fill="#FF0000" stroke="#FF0000"/>
<path opacity="0.486275" d="M7.10156 48.5156C8.98594 52.8188 11.5641 56.4281 14.8359 59.3438C17.3016 61.6125 20.1844 63.4641 23.4844 64.8984L23.2734 64.9688C18.8953 62.9813 15.2156 60.2859 12.2344 56.8828L9.28125 52.9453L7.03125 48.7266L7.10156 48.5156Z" fill="#FF0000" stroke="#FF0000"/>
<path opacity="0.486275" d="M32.2734 48.5156L32.3438 49.0078H32.2031L32.2734 48.5156Z" fill="#FF0000" stroke="#FF0000"/>
<path opacity="0.486275" d="M64.8984 48.5156L64.9688 48.7266C63.0094 53.0484 60.3609 56.6813 57.0234 59.625C54.6328 61.8281 51.8203 63.6094 48.5859 64.9688V64.8281C52.9266 62.9344 56.5594 60.3328 59.4844 57.0234C61.6969 54.5953 63.5016 51.7594 64.8984 48.5156Z" fill="#FF0000" stroke="#FF0000"/>
<path opacity="0.486275" d="M39.7266 48.6562L39.7969 49.2891H39.6562L39.7266 48.6562Z" fill="#FF0000" stroke="#FF0000"/>
<path opacity="0.486275" d="M39.7266 49.7812L39.7969 50.4141C39.5063 51.4359 38.9672 52.2094 38.1797 52.7344L37.6172 53.0156V52.875L39.0938 51.6797C39.45 51.1922 39.6609 50.5594 39.7266 49.7812Z" fill="#FF0000" stroke="#FF0000"/>
<path opacity="0.486275" d="M32.2738 50.0625C32.4707 51.2719 33.0097 52.1391 33.891 52.6641L33.3988 52.3125C33.1926 52.3875 33.1222 52.3172 33.1879 52.1016C32.5035 51.6703 32.1988 50.9906 32.2738 50.0625Z" fill="#FF0000" stroke="#FF0000"/>
<path opacity="0.486275" d="M34.1016 52.7344L35.4375 53.2266L34.9453 53.2969L34.2422 53.0156L34.1016 52.7344Z" fill="#FF0000" stroke="#FF0000"/>
<path opacity="0.486275" d="M37.1953 53.0156L37.4062 53.0859L36.6328 53.2969V53.1562L37.1953 53.0156Z" fill="#FF0000" stroke="#FF0000"/>
<path opacity="0.486275" d="M35.6484 53.2969L36.4219 53.3672L35.6484 53.4375V53.2969Z" fill="#FF0000" stroke="#FF0000"/>
<path opacity="0.486275" d="M23.6953 64.9688L24.1875 65.1797L23.9766 65.25L23.6953 64.9688Z" fill="#FF0000" stroke="#FF0000"/>
<path opacity="0.486275" d="M48.1641 64.9688L48.375 65.0391L47.1797 65.5312V65.3906L48.1641 64.9688Z" fill="#FF0000" stroke="#FF0000"/>
<path opacity="0.486275" d="M24.3984 65.25L24.8906 65.4609L24.6797 65.5312L24.3984 65.25Z" fill="#FF0000" stroke="#FF0000"/>
<path opacity="0.486275" d="M25.1016 65.5312L27 66.1641L26.6484 66.2344L25.1016 65.6719V65.5312Z" fill="#FF0000" stroke="#FF0000"/>
<path opacity="0.486275" d="M46.7578 65.5312L46.9688 65.6016L45.0703 66.2344V66.0938L46.7578 65.5312Z" fill="#FF0000" stroke="#FF0000"/>
<path opacity="0.486275" d="M27.2109 66.2344L27.9844 66.4453L27.6328 66.5156L27.2109 66.375V66.2344Z" fill="#FF0000" stroke="#FF0000"/>
<path opacity="0.486275" d="M44.5078 66.2344L44.8594 66.3047L44.0859 66.5156V66.375L44.5078 66.2344Z" fill="#FF0000" stroke="#FF0000"/>
<path opacity="0.486275" d="M28.1953 66.5156L29.25 66.7266L28.7578 66.7969L28.1953 66.6562V66.5156Z" fill="#FF0000" stroke="#FF0000"/>
<path opacity="0.486275" d="M43.5234 66.5156L43.875 66.5859L43.5234 66.6562V66.5156Z" fill="#FF0000" stroke="#FF0000"/>
<path opacity="0.486275" d="M42.8203 66.6562L43.3125 66.7266L42.8203 66.7969V66.6562Z" fill="#FF0000" stroke="#FF0000"/>
<path opacity="0.486275" d="M29.4609 66.7969L29.9531 66.8672L29.4609 66.9375V66.7969Z" fill="#FF0000" stroke="#FF0000"/>
<path opacity="0.486275" d="M42.1172 66.7969L42.6094 66.8672L42.1172 66.9375V66.7969Z" fill="#FF0000" stroke="#FF0000"/>
<path opacity="0.486275" d="M30.1641 66.9375L30.6562 67.0078L30.1641 67.0781V66.9375Z" fill="#FF0000" stroke="#FF0000"/>
<path opacity="0.486275" d="M41.4141 66.9375L41.9062 67.0078L41.4141 67.0781V66.9375Z" fill="#FF0000" stroke="#FF0000"/>
<path opacity="0.486275" d="M30.8672 67.0781L31.5 67.1484L30.8672 67.2188V67.0781Z" fill="#FF0000" stroke="#FF0000"/>
<path opacity="0.486275" d="M40.5703 67.0781L41.2031 67.1484L40.5703 67.2188V67.0781Z" fill="#FF0000" stroke="#FF0000"/>
<path opacity="0.486275" d="M31.8516 67.2188L32.625 67.2891L31.8516 67.3594V67.2188Z" fill="#FF0000" stroke="#FF0000"/>
<path opacity="0.486275" d="M39.4453 67.2188L40.2188 67.2891L39.4453 67.3594V67.2188Z" fill="#FF0000" stroke="#FF0000"/>
<path opacity="0.486275" d="M33.1172 67.3594L34.7344 67.4297L33.1172 67.5V67.3594Z" fill="#FF0000" stroke="#FF0000"/>
<path opacity="0.486275" d="M37.3359 67.3594L38.9531 67.4297L37.3359 67.5V67.3594Z" fill="#FF0000" stroke="#FF0000"/>
<path d="M34.6641 4.5H37.3359L37.4766 4.64062H39.3047L39.4453 4.78125L41.2734 4.92188L44.9297 5.76562L48.4453 7.03125C52.8234 8.98125 56.5031 11.6297 59.4844 14.9766C62.025 17.7797 64.0406 21.1078 65.5312 24.9609L66.5156 28.0547L67.2188 31.5703L67.3594 34.5234L67.5 34.6641V37.3359L67.3594 37.4766L67.2188 40.4297L66.5156 43.9453L64.9688 48.4453C63.0469 52.7578 60.4453 56.3906 57.1641 59.3438C54.3328 61.95 50.9578 64.0125 47.0391 65.5312L43.9453 66.5156L40.4297 67.2188L37.3359 67.3594L37.1953 67.5H34.8047L34.6641 67.3594L31.5703 67.2188L28.0547 66.5156L23.5547 64.9688C19.2422 63.0469 15.6094 60.4453 12.6562 57.1641C10.05 54.3328 7.9875 50.9578 6.46875 47.0391L5.48438 43.9453L4.78125 40.4297L4.64062 37.4766L4.5 37.3359V34.6641L4.64062 34.5234L4.78125 31.5703L5.34375 28.6172L7.03125 23.5547C8.98125 19.1766 11.6297 15.4969 14.9766 12.5156C17.4422 10.2937 20.3016 8.46562 23.5547 7.03125L27.0703 5.76562L29.8828 5.0625L32.5547 4.78125L32.6953 4.64062H34.5234L34.6641 4.5ZM35.2969 19.125L33.8906 19.8281C33.3281 20.2969 32.9062 20.9531 32.625 21.7969V39.5156L33.1875 40.7812C33.6562 41.3438 34.3125 41.7656 35.1562 42.0469C36.4687 42.2344 37.4531 42.0469 38.1094 41.4844C38.7656 41.0156 39.1875 40.3594 39.375 39.5156V21.7969L38.6719 20.3906C38.1094 19.3594 36.9844 18.9375 35.2969 19.125ZM35.2969 45.7031L33.75 46.4062L32.7656 47.3906L32.2031 48.6562C32.2969 49.0313 32.25 49.3125 32.0625 49.5L32.3438 51.0469L33.1875 52.3125L34.5938 53.1562L35.7188 53.4375C36.75 53.4375 37.5938 53.2031 38.25 52.7344C39 52.1719 39.5156 51.4219 39.7969 50.4844C39.9844 48.9844 39.75 47.9062 39.0938 47.25C38.4375 46.125 37.1719 45.6094 35.2969 45.7031Z" fill="#FF0000" stroke="#FF0000"/>
<path d="M35.9297 19.125C37.2891 19.2656 38.25 19.8047 38.8125 20.7422L39.2344 21.7266V39.5859L38.1797 41.2031C37.6266 41.775 36.7828 42.0563 35.6484 42.0469C34.6922 41.8875 33.9656 41.4891 33.4688 40.8516L32.7656 39.5859C32.9062 39.0703 32.8594 38.7422 32.625 38.6016V22.5703L33.1875 20.7422L34.2422 19.6875L35.0859 19.2656C35.5266 19.3875 35.8078 19.3406 35.9297 19.125Z" fill="white" stroke="white"/>
<path d="M35.0862 45.8438C36.0331 45.6938 36.7831 45.7406 37.3362 45.9844L38.9534 47.1797C39.4691 47.7891 39.7503 48.6328 39.7972 49.711L39.0941 51.6797L38.18 52.5938C37.5706 53.1094 36.68 53.3438 35.5081 53.2969C34.3175 53.0906 33.4503 52.5516 32.9066 51.6797C32.4097 51.0985 32.1753 50.2547 32.2034 49.1485C32.4284 48.0141 32.9206 47.1469 33.68 46.5469L35.0862 45.8438Z" fill="white" stroke="white"/>
</svg>
