<svg xmlns="http://www.w3.org/2000/svg" width="32" height="24" viewBox="0 0 16 12" fill="none">
  <path d="M8 3.75C7.40326 3.75 6.83097 3.98705 6.40901 4.40901C5.98705 4.83097 5.75 5.40326 5.75 6C5.75 6.59674 5.98705 7.16903 6.40901 7.59099C6.83097 8.01295 7.40326 8.25 8 8.25C8.59674 8.25 9.16903 8.01295 9.59099 7.59099C10.0129 7.16903 10.25 6.59674 10.25 6C10.25 5.40326 10.0129 4.83097 9.59099 4.40901C9.16903 3.98705 8.59674 3.75 8 3.75ZM8 9.75C7.00544 9.75 6.05161 9.35491 5.34835 8.65165C4.64509 7.94839 4.25 6.99456 4.25 6C4.25 5.00544 4.64509 4.05161 5.34835 3.34835C6.05161 2.64509 7.00544 2.25 8 2.25C8.99456 2.25 9.94839 2.64509 10.6517 3.34835C11.3549 4.05161 11.75 5.00544 11.75 6C11.75 6.99456 11.3549 7.94839 10.6517 8.65165C9.94839 9.35491 8.99456 9.75 8 9.75ZM8 0.375C4.25 0.375 1.4225 2.7075 0.125 6C1.4225 9.2925 4.25 11.625 8 11.625C11.75 11.625 14.5775 9.39298 15.875 6.10048C14.5775 2.80798 11.75 0.375 8 0.375Z" fill="#D4D4D4"/>
</svg>
