<svg width="11" height="9" viewBox="0 0 11 9" fill="none" xmlns="http://www.w3.org/2000/svg">
<path d="M3.43685 0.371094C2.04462 0.371094 0.916016 1.49951 0.916016 2.89193C0.916016 4.35127 1.7472 5.7281 3.12174 6.98852C3.59089 7.41844 4.09602 7.79565 4.59698 8.13436C4.77257 8.25261 4.93679 8.35986 5.08401 8.44924C5.17375 8.50378 5.23292 8.54319 5.27018 8.56382C5.4086 8.64082 5.5901 8.64082 5.72851 8.56382C5.76578 8.54319 5.82495 8.50378 5.91469 8.44924C6.06191 8.35986 6.22613 8.25261 6.40171 8.13436C6.90267 7.79565 7.4078 7.41844 7.87695 6.98852C9.25149 5.7281 10.0827 4.35127 10.0827 2.89193C10.0827 1.49951 8.95408 0.371094 7.56185 0.371094C6.77113 0.371094 5.99911 0.801933 5.51365 1.43077C5.04028 0.790933 4.27097 0.371094 3.43685 0.371094Z" fill="#FF5252"/>
</svg>
