<svg xmlns="http://www.w3.org/2000/svg" width="14" height="12" viewBox="0 0 14 12" fill="none">
  <path fill-rule="evenodd" clip-rule="evenodd" d="M4.02417 0.0849649C5.00417 0.155965 6.02617 0.634965 7.00417 1.60196C7.98217 0.633965 9.00317 0.156965 9.98217 0.0879649C11.0882 0.00896487 12.0652 0.455965 12.7722 1.16096C14.1622 2.54696 14.5992 5.05596 12.8742 6.78096L12.8562 6.79796L7.34017 11.795C7.24818 11.8784 7.1284 11.9247 7.00417 11.9247C6.87994 11.9247 6.76017 11.8784 6.66817 11.795L1.15217 6.79796L1.13417 6.78096C-0.599829 5.04696 -0.165829 2.53796 1.22917 1.15296C1.93817 0.448965 2.91717 0.00496486 4.02417 0.0849649Z" fill="#D4D4D4"/>
</svg>