<svg width="17" height="15" viewBox="0 0 17 15" fill="none" xmlns="http://www.w3.org/2000/svg">
<path d="M12.0694 0.0407966C11.2554 0.0387918 10.4576 0.26857 9.7693 0.703267C9.08103 1.13796 8.53073 1.75961 8.18274 2.49554C7.7723 1.60343 7.06807 0.879248 6.18777 0.444052C5.30748 0.00885535 4.30447 -0.110979 3.34643 0.104581C2.38838 0.320141 1.53337 0.858031 0.924307 1.62833C0.315249 2.39863 -0.0109367 3.35466 0.000279915 4.33659C0.000279915 8.83695 8.18274 14.7692 8.18274 14.7692C8.18274 14.7692 16.3652 8.83695 16.3652 4.33659C16.3652 3.19727 15.9126 2.10462 15.107 1.29901C14.3014 0.493388 13.2087 0.0407966 12.0694 0.0407966Z" fill="white"/>
</svg>
