<svg width="17" height="15" viewBox="0 0 17 15" fill="none" xmlns="http://www.w3.org/2000/svg">
<path d="M0.5 4.33105C0.490092 3.46366 0.778411 2.61894 1.31641 1.93848C1.8544 1.25806 2.60982 0.783227 3.45605 0.592773C4.30231 0.402365 5.18822 0.508202 5.96582 0.892578C6.74335 1.27697 7.36592 1.91619 7.72852 2.7041L8.17676 3.67871L8.63477 2.70898C8.94216 2.05902 9.42825 1.50993 10.0361 1.12598C10.6441 0.741972 11.3492 0.539245 12.0684 0.541016H12.0693C13.076 0.541016 14.0421 0.940494 14.7539 1.65234C15.4657 2.36418 15.8652 3.33026 15.8652 4.33691C15.8651 5.32051 15.4132 6.43699 14.667 7.59375C13.9265 8.74153 12.9303 9.8773 11.9209 10.8867C10.9134 11.8943 9.90302 12.7653 9.14453 13.3848C8.76579 13.6941 8.45045 13.9403 8.23047 14.1084C8.21421 14.1208 8.19782 14.132 8.18262 14.1436C8.16741 14.132 8.15103 14.1208 8.13477 14.1084C7.91476 13.9402 7.59951 13.6941 7.2207 13.3848C6.46221 12.7653 5.45285 11.8943 4.44531 10.8867C3.43581 9.87721 2.43981 8.74167 1.69922 7.59375C0.952876 6.43687 0.500099 5.32061 0.5 4.33691V4.33105Z" stroke="#F35656"/>
</svg>
