<svg width="24" height="24" viewBox="0 0 24 24" fill="none" xmlns="http://www.w3.org/2000/svg">
<path fill-rule="evenodd" clip-rule="evenodd" d="M2.25003 8.28028C2.27927 5.42838 4.54489 3 7.45687 3C9.24426 3 10.559 3.88475 11.398 4.71777C11.6316 4.94972 11.8321 5.18108 12 5.39441C12.1679 5.18108 12.3683 4.94972 12.602 4.71777C13.441 3.88475 14.7557 3 16.5431 3C19.4551 3 21.7207 5.42838 21.75 8.28028C21.8054 13.8425 17.3361 17.6908 12.8437 20.7403C12.5949 20.9095 12.3009 21.0001 12 21.0001C11.699 21.0001 11.4051 20.9095 11.1562 20.7403C6.66343 17.6908 2.19407 13.8426 2.25003 8.28028ZM12.6699 7.08725C12.5425 7.34027 12.2834 7.5 12 7.5C11.7166 7.5 11.4575 7.34029 11.3301 7.08729C11.33 7.08698 11.3296 7.08638 11.3292 7.0855C11.3283 7.08372 11.3268 7.08081 11.3246 7.0768C11.3235 7.07467 11.3222 7.07223 11.3208 7.0695C11.3123 7.0537 11.2983 7.02796 11.2787 6.9937C11.2394 6.92508 11.1781 6.82288 11.0947 6.69831C10.9272 6.44793 10.6755 6.11413 10.3412 5.78223C9.66941 5.11525 8.7126 4.5 7.45687 4.5C5.42265 4.5 3.77141 6.20966 3.74995 8.29551M12.6699 7.08725C12.6701 7.08694 12.6704 7.08635 12.6708 7.0855C12.6722 7.08278 12.675 7.07739 12.6792 7.0695C12.6876 7.0537 12.7017 7.02796 12.7213 6.9937C12.7606 6.92508 12.8219 6.82288 12.9053 6.69831C13.0728 6.44793 13.3245 6.11413 13.6588 5.78223C14.3306 5.11525 15.2874 4.5 16.5431 4.5C18.5773 4.5 20.2285 6.20963 20.25 8.29545C20.2968 12.9826 16.5324 16.4235 12.0006 19.4996L11.9993 19.4996C7.46709 16.4235 3.70287 12.9825 3.74995 8.29551" fill="#FF5252"/>
</svg>
