<svg width="88" height="88" viewBox="0 0 88 88" fill="none" xmlns="http://www.w3.org/2000/svg">
<g clip-path="url(#clip0_69_740)">
<path opacity="0.992157" d="M43.0547 22L45.6328 22.1719C46.7443 22.55 47.6323 23.1516 48.2969 23.9766L49.3281 25.8672L49.5 28.2734C49.1792 29.7859 48.5203 30.9604 47.5234 31.7969L45.6328 32.8281L43.2266 33C41.6568 32.7365 40.4823 32.0776 39.7031 31.0234L38.6719 29.1328L38.5 26.5547C38.8094 25.088 39.4682 23.9708 40.4766 23.2031C41.1526 22.6187 42.012 22.2177 43.0547 22Z" fill="#EBF1FF" stroke="#EBF1FF"/>
<path opacity="0.992157" d="M41.5078 38.5H46.4922C47.5349 38.7177 48.3083 39.2047 48.8125 39.9609L49.5 41.5078V64.8828C49.2479 65.7766 48.8182 66.4927 48.2109 67.0312L47.0078 67.7188L46.1484 67.8906H41.8516C40.763 67.7188 39.9323 67.2891 39.3594 66.6016L38.5 64.8828V41.5078C38.7177 40.4651 39.2047 39.6917 39.9609 39.1875L41.5078 38.5Z" fill="#EBF1FF" stroke="#EBF1FF"/>
<path opacity="0.992157" d="M42.0234 4.46875H45.9766L46.1484 4.64062H48.2109L48.3828 4.8125L51.6484 5.15625L55.7734 6.1875L59.8984 7.73438C64.9974 10.026 69.3229 13.0911 72.875 16.9297C76.4958 20.6995 79.3031 25.2828 81.2969 30.6797L82.5 34.8047L83.1875 38.4141L83.3594 41.6797L83.5312 41.8516V45.9766L83.3594 46.1484L83.1875 49.5859L82.5 53.1953L81.8125 55.7734L80.2656 59.8984C77.9625 64.9859 74.8974 69.3115 71.0703 72.875C67.3005 76.4958 62.7172 79.3031 57.3203 81.2969L53.1953 82.5L49.5859 83.1875L46.1484 83.3594L45.9766 83.5312H42.0234L41.8516 83.3594H39.7891L34.8047 82.5L32.2266 81.8125L28.1016 80.2656C23.0141 77.9625 18.6885 74.8974 15.125 71.0703C11.3896 67.1859 8.525 62.4307 6.53125 56.8047L5.32812 52.5078L4.8125 49.5859L4.64062 46.3203L4.46875 46.1484V41.8516L4.64062 41.6797V39.7891L4.8125 39.6172V38.4141L5.32812 35.4922C5.92396 32.8224 6.72604 30.3589 7.73438 28.1016C10.026 23.0026 13.0911 18.6771 16.9297 15.125C20.0922 12.1 23.8161 9.63646 28.1016 7.73438L31.7109 6.35938L34.8047 5.5L38.4141 4.8125L41.8516 4.64062L42.0234 4.46875ZM42.1094 4.64062L41.9375 4.8125H40.0469L39.875 4.98438H38.6719L35.75 5.5C33.1146 6.07292 30.7656 6.81771 28.7031 7.73438C24.4635 9.56771 20.7969 11.9167 17.7031 14.7812C13.4635 18.5625 10.1406 23.2031 7.73438 28.7031C6.81771 30.7656 6.07292 33.1146 5.5 35.75L4.98438 38.6719V39.875L4.8125 40.0469V41.9375L4.64062 42.1094V46.0625L4.8125 46.2344V48.125L4.98438 48.2969L5.15625 50.7031C5.61458 53.1094 6.24479 55.4583 7.04688 57.75C8.99479 62.5625 11.5729 66.8021 14.7812 70.4688C18.5625 74.5938 23.2031 77.8594 28.7031 80.2656C30.7656 81.1823 33.1146 81.9271 35.75 82.5L38.6719 83.0156H39.875L40.0469 83.1875H41.9375L42.1094 83.3594H46.0625L46.2344 83.1875H48.2969L49.6719 82.8438H50.7031C53.1094 82.3854 55.4583 81.7552 57.75 80.9531C62.5625 79.0052 66.8021 76.4271 70.4688 73.2188C74.5938 69.4375 77.8594 64.8542 80.2656 59.4688C81.1823 57.2917 81.9271 54.9427 82.5 52.4219L83.0156 49.5V48.2969L83.1875 48.125V46.2344L83.3594 46.0625V42.1094L83.1875 41.9375V40.0469L83.0156 39.875L82.8438 37.4688C82.3854 34.9479 81.7552 32.599 80.9531 30.4219C79.0052 25.4948 76.4271 21.2552 73.2188 17.7031C69.4375 13.4635 64.8542 10.1406 59.4688 7.73438L55.1719 6.1875L50.7031 5.15625L48.4688 4.98438L48.2969 4.8125H46.2344L46.0625 4.64062H42.1094Z" fill="#4194FF" stroke="#4194FF"/>
<path d="M42.0234 4.64062H45.9766L46.1484 4.8125H48.2109L48.3828 4.98438L50.6172 5.15625L55.0859 6.1875L59.3828 7.73438C64.8828 10.1406 69.4948 13.4349 73.2188 17.6172C76.4729 21.1807 79.051 25.4203 80.9531 30.3359C81.7437 32.5245 82.374 34.8734 82.8438 37.3828L83.0156 39.7891L83.1875 39.9609V41.8516L83.3594 42.0234V45.9766L83.1875 46.1484V48.0391L83.0156 48.2109V49.4141L82.5 52.3359C81.9385 54.8682 81.1938 57.2172 80.2656 59.3828C77.8594 64.8828 74.5651 69.4948 70.3828 73.2188C66.8193 76.4729 62.5797 79.051 57.6641 80.9531C55.4755 81.7437 53.1266 82.374 50.6172 82.8438H49.5859L48.2109 83.1875H46.1484L45.9766 83.3594H42.0234L41.8516 83.1875H39.9609L39.7891 83.0156H38.5859L35.6641 82.5C33.1318 81.9385 30.7828 81.1938 28.6172 80.2656C23.1172 77.8594 18.5052 74.5651 14.7812 70.3828C11.5271 66.8193 8.94896 62.5797 7.04688 57.6641C6.25625 55.4755 5.62604 53.1266 5.15625 50.6172L4.98438 48.2109L4.8125 48.0391V46.1484L4.64062 45.9766V42.0234L4.8125 41.8516V39.9609L4.98438 39.7891V38.5859L5.5 35.6641C6.06146 33.1318 6.80625 30.7828 7.73438 28.6172C10.1406 23.1172 13.4349 18.5052 17.6172 14.7812C20.7682 11.9167 24.4349 9.56771 28.6172 7.73438C30.7828 6.80625 33.1318 6.06146 35.6641 5.5L38.5859 4.98438H39.7891L39.9609 4.8125H41.8516L42.0234 4.64062ZM43.1406 22C41.9948 22.2292 41.1354 22.6302 40.5625 23.2031C39.5312 24.0052 38.8438 25.151 38.5 26.6406L38.6719 29.2188L39.7031 31.1094C40.5052 32.1406 41.7083 32.7708 43.3125 33L45.7188 32.8281L47.6094 31.7969C48.526 30.9948 49.1562 29.849 49.5 28.3594L49.3281 25.9531L48.2969 24.0625C47.6094 23.1458 46.75 22.5156 45.7188 22.1719L43.1406 22ZM41.5938 38.5L40.0469 39.1875C39.2448 39.6458 38.7292 40.4479 38.5 41.5938V64.9688L39.3594 66.6875C39.9323 67.2604 40.7917 67.6615 41.9375 67.8906H46.2344L47.0938 67.7188L48.2969 67.0312C48.8698 66.4583 49.2708 65.7708 49.5 64.9688V41.5938L48.8125 40.0469C48.3542 39.2448 47.6094 38.7292 46.5781 38.5H41.5938Z" fill="#4294FF" stroke="#4294FF"/>
</g>
<defs>
<clipPath id="clip0_69_740">
<rect width="88" height="88" fill="white"/>
</clipPath>
</defs>
</svg>
