<svg xmlns="http://www.w3.org/2000/svg" width="14" height="14" viewBox="0 0 14 14" fill="none">
  <path fill-rule="evenodd" clip-rule="evenodd" d="M4.02417 1.08496C5.00417 1.15596 6.02617 1.63496 7.00417 2.60196C7.98217 1.63396 9.00317 1.15696 9.98217 1.08796C11.0882 1.00896 12.0652 1.45596 12.7722 2.16096C14.1622 3.54696 14.5992 6.05596 12.8742 7.78096L12.8562 7.79796L7.34017 12.795C7.24818 12.8784 7.1284 12.9247 7.00417 12.9247C6.87994 12.9247 6.76017 12.8784 6.66817 12.795L1.15217 7.79796L1.13417 7.78096C-0.599829 6.04696 -0.165829 3.53796 1.22917 2.15296C1.93817 1.44896 2.91717 1.00496 4.02417 1.08496Z" fill="#FF8585"/>
</svg>