<svg width="16" height="16" viewBox="0 0 16 16" fill="none" xmlns="http://www.w3.org/2000/svg">
<path d="M5.66667 1.93333H3.98667C2.94133 1.93333 2.41867 1.93333 2.0192 2.1368C1.66798 2.31576 1.38243 2.60131 1.20347 2.95253C1 3.352 1 3.87467 1 4.92V12.0133C1 13.0587 1 13.5813 1.20347 13.9808C1.38243 14.332 1.66798 14.6176 2.0192 14.7965C2.41773 15 2.9404 15 3.98387 15H11.0828C12.1263 15 12.648 15 13.0465 14.7965C13.3984 14.6173 13.684 14.3317 13.8632 13.9808C14.0667 13.5813 14.0667 13.0596 14.0667 12.0161V10.3333M15 5.66667V1M15 1H10.3333M15 1L8.46667 7.53333" stroke="#767676" stroke-width="2" stroke-linecap="round" stroke-linejoin="round"/>
</svg>
