<svg xmlns="http://www.w3.org/2000/svg" width="18" height="18" viewBox="0 0 18 18" fill="none">
  <path d="M16.7523 0.583453C15.9743 -0.194484 14.7169 -0.194484 13.9389 0.583453L12.8697 1.64912L16.3473 5.12675L17.4165 4.05753C18.1945 3.27959 18.1945 2.0221 17.4165 1.24417L16.7523 0.583453ZM6.12403 8.39834C5.90735 8.61503 5.74039 8.88144 5.64448 9.17628L4.59302 12.3307C4.49001 12.6361 4.57171 12.9736 4.79905 13.2045C5.0264 13.4354 5.36386 13.5135 5.6729 13.4105L8.82727 12.3591C9.11856 12.2632 9.38497 12.0962 9.60521 11.8795L15.5481 5.9331L12.0669 2.45192L6.12403 8.39834ZM3.41013 2.08604C1.52746 2.08604 0 3.6135 0 5.49618V14.5899C0 16.4725 1.52746 18 3.41013 18H12.5038C14.3865 18 15.914 16.4725 15.914 14.5899V11.1797C15.914 10.551 15.406 10.043 14.7772 10.043C14.1485 10.043 13.6405 10.551 13.6405 11.1797V14.5899C13.6405 15.2186 13.1326 15.7266 12.5038 15.7266H3.41013C2.78139 15.7266 2.27342 15.2186 2.27342 14.5899V5.49618C2.27342 4.86743 2.78139 4.35947 3.41013 4.35947H6.82027C7.44901 4.35947 7.95698 3.8515 7.95698 3.22275C7.95698 2.59401 7.44901 2.08604 6.82027 2.08604H3.41013Z" fill="#fff"/>
</svg>