<svg xmlns="http://www.w3.org/2000/svg" width="16" height="16" viewBox="0 0 16 16" fill="none">
  <path d="M13.8214 13.0823L11.5811 10.7906C12.4507 9.67248 12.8719 8.25321 12.7579 6.82467C12.644 5.39612 12.0036 4.06689 10.9685 3.11029C9.9334 2.15369 8.58223 1.64243 7.19282 1.68164C5.80341 1.72085 4.48137 2.30754 3.49854 3.32109C2.51571 4.33463 1.94679 5.69798 1.90877 7.13081C1.87075 8.56364 2.36652 9.95704 3.29413 11.0245C4.22175 12.0919 5.5107 12.7523 6.89595 12.8698C8.2812 12.9873 9.65747 12.553 10.7418 11.6562L12.964 13.9479C13.0201 14.0063 13.0869 14.0526 13.1605 14.0842C13.2341 14.1158 13.313 14.1321 13.3927 14.1321C13.4724 14.1321 13.5513 14.1158 13.6249 14.0842C13.6985 14.0526 13.7653 14.0063 13.8214 13.9479C13.9303 13.8318 13.9911 13.6766 13.9911 13.5151C13.9911 13.3536 13.9303 13.1984 13.8214 13.0823ZM7.3541 11.6562C6.51807 11.6562 5.70082 11.4006 5.00569 10.9216C4.31056 10.4426 3.76877 9.76182 3.44884 8.96529C3.12891 8.16877 3.0452 7.2923 3.2083 6.44671C3.3714 5.60113 3.77398 4.82441 4.36514 4.21477C4.9563 3.60514 5.70949 3.18998 6.52945 3.02178C7.34941 2.85358 8.19932 2.93991 8.97171 3.26984C9.74409 3.59977 10.4043 4.15849 10.8687 4.87534C11.3332 5.59219 11.5811 6.43498 11.5811 7.29713C11.5811 8.45324 11.1358 9.562 10.3431 10.3795C9.55033 11.197 8.47517 11.6562 7.3541 11.6562Z" fill="#6B7684"/>
</svg>