<svg width="449" height="449" viewBox="0 0 449 449" fill="none" xmlns="http://www.w3.org/2000/svg">
<path d="M205.5 1H242.5L243.5 2L259.5 3L289.5 10L311.5 18C343.633 32.2 370.467 51.7 392 76.5C409.667 96.1667 423.667 119.5 434 146.5L444 182.5L446 201.5L447 202.5L448 227.5L447 228.5V245.5L446 246.5V253.5L442 275.5L431 309.5C418.667 338.167 402.167 362.667 381.5 383C360.367 404.2 334.7 420.867 304.5 433L290.5 438L266.5 444L247.5 446L246.5 447L218.5 448L217.5 447L194.5 446L172.5 442C156.233 437.933 141.233 432.6 127.5 426C98.9 411.933 74.7333 393.433 55 370.5C35.3333 348.167 20.3333 321.167 10 289.5L3 259.5L2 244.5L1 243.5V205.5L2 204.5L4 183.5L10 158.5L19 134.5L28 116.5C40.7333 93.5667 56.5667 73.7333 75.5 57C91.9667 42.1333 110.967 29.8 132.5 20L169.5 7L189.5 3L204.5 2L205.5 1ZM305 143L295 147L196 246L155 205L147 201C135.667 199.667 128 201.333 124 206C119.333 209.333 116.333 214.667 115 222C114.333 230.667 116.333 237.333 121 242L180 300L190 305C198 306.333 204.333 305.333 209 302L329 182L333 173V164L329 154C325 146 317 142.333 305 143Z" fill="#00BA00" stroke="#00BA00"/>
</svg>
