<svg width="18" height="18" viewBox="0 0 60 60" fill="none" xmlns="http://www.w3.org/2000/svg">
<path d="M30 5C25.0555 5 20.222 6.46622 16.1108 9.21326C11.9995 11.9603 8.79521 15.8648 6.90302 20.4329C5.01083 25.0011 4.51575 30.0277 5.48038 34.8773C6.44501 39.7268 8.82603 44.1814 12.3223 47.6777C15.8187 51.174 20.2732 53.555 25.1228 54.5196C29.9723 55.4843 34.9989 54.9892 39.5671 53.097C44.1353 51.2048 48.0397 48.0005 50.7867 43.8893C53.5338 39.778 55 34.9445 55 30C55 26.717 54.3534 23.4661 53.097 20.4329C51.8406 17.3998 49.9991 14.6438 47.6777 12.3223C45.3562 10.0009 42.6002 8.15938 39.5671 6.90301C36.534 5.64664 33.2831 5 30 5ZM30 50C26.0444 50 22.1776 48.827 18.8886 46.6294C15.5996 44.4318 13.0362 41.3082 11.5224 37.6537C10.0087 33.9991 9.6126 29.9778 10.3843 26.0982C11.156 22.2186 13.0608 18.6549 15.8579 15.8579C18.6549 13.0608 22.2186 11.156 26.0982 10.3843C29.9778 9.61259 33.9992 10.0087 37.6537 11.5224C41.3082 13.0362 44.4318 15.5996 46.6294 18.8886C48.827 22.1776 50 26.0444 50 30C50 35.3043 47.8929 40.3914 44.1421 44.1421C40.3914 47.8929 35.3043 50 30 50Z" fill="black"/>
<path d="M30 15C27.6794 15 25.4538 15.9219 23.8128 17.5628C22.1719 19.2037 21.25 21.4293 21.25 23.75C21.25 24.413 21.5134 25.0489 21.9822 25.5178C22.4511 25.9866 23.087 26.25 23.75 26.25C24.413 26.25 25.0489 25.9866 25.5178 25.5178C25.9866 25.0489 26.25 24.413 26.25 23.75C26.25 23.0083 26.4699 22.2833 26.882 21.6666C27.294 21.0499 27.8797 20.5693 28.5649 20.2854C29.2502 20.0016 30.0042 19.9273 30.7316 20.072C31.459 20.2167 32.1272 20.5739 32.6517 21.0983C33.1761 21.6228 33.5333 22.291 33.6779 23.0184C33.8226 23.7458 33.7484 24.4998 33.4645 25.185C33.1807 25.8703 32.7001 26.4559 32.0834 26.868C31.4667 27.2801 30.7417 27.5 30 27.5C29.337 27.5 28.7011 27.7634 28.2322 28.2322C27.7634 28.7011 27.5 29.3369 27.5 30V35C27.5 35.663 27.7634 36.2989 28.2322 36.7678C28.7011 37.2366 29.337 37.5 30 37.5C30.663 37.5 31.2989 37.2366 31.7678 36.7678C32.2366 36.2989 32.5 35.663 32.5 35V32.1C34.5203 31.51 36.2592 30.2096 37.3962 28.4386C38.5333 26.6675 38.9918 24.5452 38.6874 22.4626C38.3829 20.3801 37.336 18.4779 35.7395 17.1065C34.143 15.735 32.1046 14.9869 30 15Z" fill="black"/>
<path d="M30 45C31.3807 45 32.5 43.8807 32.5 42.5C32.5 41.1193 31.3807 40 30 40C28.6193 40 27.5 41.1193 27.5 42.5C27.5 43.8807 28.6193 45 30 45Z" fill="black"/>
</svg>
