<svg width="20" height="20" viewBox="0 0 20 20" fill="none" xmlns="http://www.w3.org/2000/svg">
<path d="M10.8334 6.24996C10.8334 6.47097 10.7456 6.68293 10.5893 6.83921C10.433 6.9955 10.2211 7.08329 10 7.08329C9.77903 7.08329 9.56707 6.9955 9.41079 6.83921C9.2545 6.68293 9.16671 6.47097 9.16671 6.24996C9.16671 6.02895 9.2545 5.81698 9.41079 5.6607C9.56707 5.50442 9.77903 5.41663 10 5.41663C10.2211 5.41663 10.433 5.50442 10.5893 5.6607C10.7456 5.81698 10.8334 6.02895 10.8334 6.24996ZM8.33337 9.37496C8.33337 9.2092 8.39922 9.05023 8.51643 8.93302C8.63364 8.81581 8.79261 8.74996 8.95837 8.74996H10.2084C10.3741 8.74996 10.5331 8.81581 10.6503 8.93302C10.7675 9.05023 10.8334 9.2092 10.8334 9.37496V12.9166H11.4584C11.6241 12.9166 11.7831 12.9825 11.9003 13.0997C12.0175 13.2169 12.0834 13.3759 12.0834 13.5416C12.0834 13.7074 12.0175 13.8664 11.9003 13.9836C11.7831 14.1008 11.6241 14.1666 11.4584 14.1666H8.95837C8.79261 14.1666 8.63364 14.1008 8.51643 13.9836C8.39922 13.8664 8.33337 13.7074 8.33337 13.5416C8.33337 13.3759 8.39922 13.2169 8.51643 13.0997C8.63364 12.9825 8.79261 12.9166 8.95837 12.9166H9.58337V9.99996H8.95837C8.79261 9.99996 8.63364 9.93411 8.51643 9.8169C8.39922 9.69969 8.33337 9.54072 8.33337 9.37496Z" fill="#736D6D"/>
<path d="M10 0.833374C15.0625 0.833374 19.1667 4.93754 19.1667 10C19.1667 15.0625 15.0625 19.1667 10 19.1667C4.93754 19.1667 0.833374 15.0625 0.833374 10C0.833374 4.93754 4.93754 0.833374 10 0.833374ZM2.08337 10C2.08337 12.0997 2.91745 14.1133 4.40211 15.598C5.88678 17.0826 7.90041 17.9167 10 17.9167C12.0997 17.9167 14.1133 17.0826 15.598 15.598C17.0826 14.1133 17.9167 12.0997 17.9167 10C17.9167 7.90041 17.0826 5.88678 15.598 4.40211C14.1133 2.91745 12.0997 2.08337 10 2.08337C7.90041 2.08337 5.88678 2.91745 4.40211 4.40211C2.91745 5.88678 2.08337 7.90041 2.08337 10Z" fill="#736D6D"/>
</svg>
