<svg width="16" height="16" viewBox="0 0 16 16" fill="none" xmlns="http://www.w3.org/2000/svg">
<path d="M13.7068 6.29303L8.70685 1.29303C8.51932 1.10556 8.26501 1.00024 7.99985 1.00024C7.73469 1.00024 7.48038 1.10556 7.29285 1.29303L2.29285 6.29303C2.10534 6.48054 2 6.73485 2 7.00003C2 7.13133 2.02586 7.26135 2.07611 7.38266C2.12636 7.50396 2.2 7.61419 2.29285 7.70703C2.38569 7.79987 2.49592 7.87352 2.61722 7.92377C2.73853 7.97402 2.86855 7.99988 2.99985 7.99988C3.26503 7.99988 3.51934 7.89454 3.70685 7.70703L6.99985 4.41403V14C6.99985 14.2652 7.10521 14.5196 7.29274 14.7071C7.48028 14.8947 7.73463 15 7.99985 15C8.26507 15 8.51942 14.8947 8.70696 14.7071C8.89449 14.5196 8.99985 14.2652 8.99985 14V4.41403L12.2928 7.70703C12.3855 7.80022 12.4957 7.87417 12.617 7.92463C12.7383 7.97509 12.8684 8.00107 12.9998 8.00107C13.1313 8.00107 13.2614 7.97509 13.3827 7.92463C13.504 7.87417 13.6142 7.80022 13.7068 7.70703C13.8943 7.5195 13.9996 7.26519 13.9996 7.00003C13.9996 6.73487 13.8943 6.48056 13.7068 6.29303Z" fill="white"/>
</svg>
