<svg width="79" height="75" viewBox="0 0 79 75" fill="none" xmlns="http://www.w3.org/2000/svg">
<path opacity="0.996078" d="M38.5379 15.9333L40.7163 16.1009L42.3082 17.3577L42.9785 18.8658V23.2226L42.8109 23.3901V30.5955L42.6433 30.7631V37.801L42.4758 37.9685L42.3082 49.6983C42.0959 50.5473 41.677 51.1896 41.0514 51.6253C40.5599 52.0833 39.7779 52.2509 38.7055 52.128C37.8453 51.9158 37.2029 51.4968 36.7784 50.8713L36.2757 49.6983V45.3415L36.1082 45.174V37.9685L35.9406 37.801V30.7631L35.773 30.5955L35.6055 18.8658C35.8177 17.8492 36.2925 17.0952 37.0298 16.6036L38.5379 15.9333Z" fill="white" stroke="white"/>
<path opacity="0.996078" d="M38.5381 57.8254C40.359 57.6802 41.6157 58.0991 42.3084 59.0822L43.3138 61.093V62.6011C43.0121 63.7517 42.4257 64.6175 41.5543 65.1984L39.8786 65.8687H38.7057C37.4656 65.6006 36.544 65.0141 35.9408 64.1092L35.2705 62.6011V61.093C35.4828 60.1323 35.9017 59.3782 36.5273 58.8308L38.5381 57.8254Z" fill="white" stroke="white"/>
<path d="M38.0352 1.52243C40.9956 1.29901 42.9785 2.05306 43.9839 3.7846L77.1623 65.4496L78.0002 67.4604V69.6388L77.3299 71.1469L76.4921 72.2361L74.3975 73.4091L72.5542 73.5766L72.3867 73.7442H6.19731L6.02974 73.5766L4.18649 73.4091L2.84595 72.7388L1.25406 71.1469C0.583784 70.3649 0.36036 69.1361 0.583784 67.4604L1.42162 65.4496L34.2649 4.2873L36.0244 2.36027L38.0352 1.52243ZM38.6217 15.9333L37.1136 16.6035C36.3316 17.0504 35.8289 17.8324 35.6055 18.9495L35.7731 30.6793L35.9406 30.8468V37.8847L36.1082 38.0522V45.2577L36.2758 45.4252V49.782L36.7785 50.955C37.2253 51.5135 37.8956 51.9045 38.7893 52.128C39.7947 52.2397 40.5767 52.0721 41.1352 51.6252C41.6938 51.1784 42.0848 50.564 42.3082 49.782L42.4758 38.0522L42.6433 37.8847V30.8468L42.8109 30.6793V23.4738L42.9785 23.3063V18.9495L42.3082 17.4414L40.8001 16.1008L38.6217 15.9333ZM38.6217 57.8253L36.6109 58.8307C35.9406 59.3892 35.4938 60.1712 35.2704 61.1766V62.6847L35.9406 64.1928C36.4992 65.0865 37.4487 65.6451 38.7893 65.8685H39.9623L41.6379 65.1982C42.4199 64.6397 42.9785 63.8019 43.3136 62.6847V61.1766L42.3082 59.1658C41.6379 58.1604 40.4091 57.7135 38.6217 57.8253Z" fill="#FAD271" stroke="#FAD271"/>
</svg>
